# xmcd CD database file
#
# Track frame offsets:
#	150
#	13687
#	27500
#	45387
#	59150
#	74300
#	88762
#	102200
#	121162
#	137287
#	156112
#	175912
#	193100
#	209362
#	226375
#	242750
#
# Disc length: 3445 seconds
#
# Revision: 1
# Processed by: cddbd v1.5.2PL0 Copyright (c) Steve Scherf et al.
# Submitted via: CDex 1.50beta10
#
DISCID=da0d7310
DTITLE=Sam Taylor - Saxphone 10 波麗唱片
DYEAR=2000
DGENRE=Jazz
TTITLE0=北酒場
TTITLE1=懷念酒
TTITLE2=大阪的陣雨
TTITLE3=黃昏的故鄉
TTITLE4=風雪中的流浪旅途
TTITLE5=人生山坡
TTITLE6=逝去的愛
TTITLE7=冰雨
TTITLE8=大阪慕景
TTITLE9=花街之母
TTITLE10=重逢
TTITLE11=流浪之歌
TTITLE12=化妝舞會上的相遇
TTITLE13=難看的小鴨
TTITLE14=媽媽
TTITLE15=北國之春
EXTD=YEAR: 2000
EXTT0=
EXTT1=
EXTT2=
EXTT3=
EXTT4=
EXTT5=
EXTT6=
EXTT7=
EXTT8=
EXTT9=
EXTT10=
EXTT11=
EXTT12=
EXTT13=
EXTT14=
EXTT15=
PLAYORDER=
